<mxfile host="app.diagrams.net" modified="2023-09-09T22:53:52.517Z" agent="Mozilla/5.0 (Windows NT 10.0; Win64; x64; rv:109.0) Gecko/20100101 Firefox/117.0" etag="OBHWEt_wsPJNLDUhcYoN" version="21.7.4" type="device">
  <diagram name="Página-1" id="zm4FNiw0N-qCsLZtzn5z">
    <mxGraphModel dx="1434" dy="792" grid="1" gridSize="10" guides="1" tooltips="1" connect="1" arrows="1" fold="1" page="1" pageScale="1" pageWidth="827" pageHeight="1169" math="0" shadow="0">
      <root>
        <mxCell id="0" />
        <mxCell id="1" parent="0" />
        <mxCell id="Fnbu7j7tmuIW7QC5UrZA-1" value="" style="strokeWidth=2;html=1;shape=mxgraph.flowchart.start_2;whiteSpace=wrap;" vertex="1" parent="1">
          <mxGeometry x="70" y="80" width="30" height="30" as="geometry" />
        </mxCell>
        <mxCell id="Fnbu7j7tmuIW7QC5UrZA-2" value="Se ingresan credenciales en los campos de inicio de sesión" style="rounded=1;whiteSpace=wrap;html=1;" vertex="1" parent="1">
          <mxGeometry x="130" y="52.5" width="120" height="85" as="geometry" />
        </mxCell>
        <mxCell id="Fnbu7j7tmuIW7QC5UrZA-3" value="" style="endArrow=classic;html=1;rounded=0;exitX=1;exitY=0.5;exitDx=0;exitDy=0;exitPerimeter=0;entryX=0;entryY=0.5;entryDx=0;entryDy=0;" edge="1" parent="1" source="Fnbu7j7tmuIW7QC5UrZA-1" target="Fnbu7j7tmuIW7QC5UrZA-2">
          <mxGeometry width="50" height="50" relative="1" as="geometry">
            <mxPoint x="220" y="385" as="sourcePoint" />
            <mxPoint x="270" y="335" as="targetPoint" />
          </mxGeometry>
        </mxCell>
        <mxCell id="Fnbu7j7tmuIW7QC5UrZA-5" value="" style="endArrow=classic;html=1;rounded=0;exitX=1;exitY=0.5;exitDx=0;exitDy=0;entryX=0;entryY=0.5;entryDx=0;entryDy=0;" edge="1" parent="1" source="Fnbu7j7tmuIW7QC5UrZA-2" target="Fnbu7j7tmuIW7QC5UrZA-6">
          <mxGeometry width="50" height="50" relative="1" as="geometry">
            <mxPoint x="120" y="120" as="sourcePoint" />
            <mxPoint x="170" y="120" as="targetPoint" />
          </mxGeometry>
        </mxCell>
        <mxCell id="Fnbu7j7tmuIW7QC5UrZA-10" style="edgeStyle=orthogonalEdgeStyle;rounded=0;orthogonalLoop=1;jettySize=auto;html=1;" edge="1" parent="1" source="Fnbu7j7tmuIW7QC5UrZA-6" target="Fnbu7j7tmuIW7QC5UrZA-9">
          <mxGeometry relative="1" as="geometry" />
        </mxCell>
        <mxCell id="Fnbu7j7tmuIW7QC5UrZA-6" value="Se presiona el botón &quot;Iniciar sesión&quot;" style="rounded=1;whiteSpace=wrap;html=1;" vertex="1" parent="1">
          <mxGeometry x="280" y="65" width="120" height="60" as="geometry" />
        </mxCell>
        <mxCell id="Fnbu7j7tmuIW7QC5UrZA-13" style="edgeStyle=orthogonalEdgeStyle;rounded=0;orthogonalLoop=1;jettySize=auto;html=1;entryX=0.5;entryY=0;entryDx=0;entryDy=0;" edge="1" parent="1" source="Fnbu7j7tmuIW7QC5UrZA-9" target="Fnbu7j7tmuIW7QC5UrZA-11">
          <mxGeometry relative="1" as="geometry" />
        </mxCell>
        <mxCell id="Fnbu7j7tmuIW7QC5UrZA-14" value="Si" style="edgeLabel;html=1;align=center;verticalAlign=middle;resizable=0;points=[];" vertex="1" connectable="0" parent="Fnbu7j7tmuIW7QC5UrZA-13">
          <mxGeometry x="-0.1" y="-3" relative="1" as="geometry">
            <mxPoint as="offset" />
          </mxGeometry>
        </mxCell>
        <mxCell id="Fnbu7j7tmuIW7QC5UrZA-15" style="edgeStyle=orthogonalEdgeStyle;rounded=0;orthogonalLoop=1;jettySize=auto;html=1;entryX=0;entryY=0.5;entryDx=0;entryDy=0;" edge="1" parent="1" source="Fnbu7j7tmuIW7QC5UrZA-9" target="Fnbu7j7tmuIW7QC5UrZA-12">
          <mxGeometry relative="1" as="geometry" />
        </mxCell>
        <mxCell id="Fnbu7j7tmuIW7QC5UrZA-16" value="No" style="edgeLabel;html=1;align=center;verticalAlign=middle;resizable=0;points=[];" vertex="1" connectable="0" parent="Fnbu7j7tmuIW7QC5UrZA-15">
          <mxGeometry x="-0.2" y="2" relative="1" as="geometry">
            <mxPoint as="offset" />
          </mxGeometry>
        </mxCell>
        <mxCell id="Fnbu7j7tmuIW7QC5UrZA-9" value="Credenciales correctas" style="rhombus;whiteSpace=wrap;html=1;" vertex="1" parent="1">
          <mxGeometry x="290" y="160" width="100" height="100" as="geometry" />
        </mxCell>
        <mxCell id="Fnbu7j7tmuIW7QC5UrZA-18" style="edgeStyle=orthogonalEdgeStyle;rounded=0;orthogonalLoop=1;jettySize=auto;html=1;entryX=0.5;entryY=0;entryDx=0;entryDy=0;" edge="1" parent="1" source="Fnbu7j7tmuIW7QC5UrZA-11" target="Fnbu7j7tmuIW7QC5UrZA-17">
          <mxGeometry relative="1" as="geometry" />
        </mxCell>
        <mxCell id="Fnbu7j7tmuIW7QC5UrZA-11" value="Se inicia sesión de forma correcta" style="rounded=1;whiteSpace=wrap;html=1;" vertex="1" parent="1">
          <mxGeometry x="280" y="300" width="120" height="60" as="geometry" />
        </mxCell>
        <mxCell id="Fnbu7j7tmuIW7QC5UrZA-22" style="edgeStyle=orthogonalEdgeStyle;rounded=0;orthogonalLoop=1;jettySize=auto;html=1;entryX=0;entryY=0.5;entryDx=0;entryDy=0;" edge="1" parent="1" source="Fnbu7j7tmuIW7QC5UrZA-12" target="Fnbu7j7tmuIW7QC5UrZA-21">
          <mxGeometry relative="1" as="geometry" />
        </mxCell>
        <mxCell id="Fnbu7j7tmuIW7QC5UrZA-12" value="Se envía mensaje &quot;Credenciales incorrectas&quot;" style="rounded=1;whiteSpace=wrap;html=1;" vertex="1" parent="1">
          <mxGeometry x="440" y="180" width="120" height="60" as="geometry" />
        </mxCell>
        <mxCell id="Fnbu7j7tmuIW7QC5UrZA-20" style="edgeStyle=orthogonalEdgeStyle;rounded=0;orthogonalLoop=1;jettySize=auto;html=1;entryX=0.5;entryY=0;entryDx=0;entryDy=0;" edge="1" parent="1" source="Fnbu7j7tmuIW7QC5UrZA-17" target="Fnbu7j7tmuIW7QC5UrZA-19">
          <mxGeometry relative="1" as="geometry" />
        </mxCell>
        <mxCell id="Fnbu7j7tmuIW7QC5UrZA-17" value="Se ingresa al sistema" style="rounded=1;whiteSpace=wrap;html=1;" vertex="1" parent="1">
          <mxGeometry x="280" y="400" width="120" height="60" as="geometry" />
        </mxCell>
        <mxCell id="Fnbu7j7tmuIW7QC5UrZA-19" value="" style="ellipse;shape=doubleEllipse;whiteSpace=wrap;html=1;aspect=fixed;perimeterSpacing=0;strokeWidth=2;" vertex="1" parent="1">
          <mxGeometry x="320" y="530" width="40" height="40" as="geometry" />
        </mxCell>
        <mxCell id="Fnbu7j7tmuIW7QC5UrZA-21" value="" style="ellipse;shape=doubleEllipse;whiteSpace=wrap;html=1;aspect=fixed;perimeterSpacing=0;strokeWidth=2;" vertex="1" parent="1">
          <mxGeometry x="620" y="190" width="40" height="40" as="geometry" />
        </mxCell>
      </root>
    </mxGraphModel>
  </diagram>
</mxfile>
